<?xml version="1.0" encoding="UTF-8" standalone="no"?>
<!DOCTYPE svg PUBLIC "-//W3C//DTD SVG 1.1//EN" "http://www.w3.org/Graphics/SVG/1.1/DTD/svg11.dtd">
<svg xmlns="http://www.w3.org/2000/svg" version="1.1" viewBox="0 0 89 84">
<g stroke-width="2.00" fill="none" stroke-linecap="butt">
<path stroke="#670000" vector-effect="non-scaling-stroke" d="
  M 48.81 0.00
  L 49.84 1.35
  A 1.02 1.01 40.5 0 1 49.93 2.42
  Q 49.60 3.06 50.25 3.71"
/>
<path stroke="#a47576" vector-effect="non-scaling-stroke" d="
  M 50.25 3.71
  Q 44.96 2.99 39.47 3.28
  A 1.01 1.00 88.8 0 0 38.52 4.28
  L 38.49 8.53
  A 1.00 0.99 -4.4 0 1 37.64 9.51
  C -4.20 15.88 -2.20 75.39 40.25 78.79"
/>
<path stroke="#670000" vector-effect="non-scaling-stroke" d="
  M 40.25 78.79
  Q 41.05 79.31 42.04 78.98
  Q 43.00 78.66 42.41 79.48
  Q 42.03 80.02 41.20 79.73
  Q 38.52 78.79 40.32 80.99
  C 43.77 85.22 48.36 83.16 52.94 84.00"
/>
<path stroke="#b17576" vector-effect="non-scaling-stroke" d="
  M 40.25 78.79
  L 45.52 78.67
  A 1.00 1.00 0.0 0 0 46.50 77.67
  L 46.50 73.57
  A 0.99 0.99 0.0 0 1 47.34 72.59
  C 86.53 66.21 88.52 12.70 50.25 3.71"
/>
<path stroke="#b17576" vector-effect="non-scaling-stroke" d="
  M 59.19 14.31
  C 63.03 16.59 71.42 23.65 71.81 28.47
  C 72.05 31.40 69.11 34.13 66.32 33.44
  C 63.48 32.75 59.50 27.33 57.17 25.83
  Q 50.46 21.53 42.47 21.74
  A 1.00 1.00 0.0 0 0 41.50 22.74
  L 41.50 32.95
  A 1.00 0.99 83.2 0 0 42.73 33.92
  Q 52.68 31.54 58.43 38.84
  C 65.94 48.39 57.28 60.10 47.49 62.74
  A 0.99 0.98 82.9 0 0 46.75 63.70
  L 46.75 68.20
  A 1.00 1.00 0.0 0 0 47.90 69.19
  Q 60.89 67.18 68.37 57.10
  C 84.21 35.74 69.30 6.21 42.75 6.28
  A 1.00 0.99 -0.0 0 0 41.75 7.27
  L 41.74 8.38
  A 1.00 1.00 0.0 0 0 42.69 9.38
  Q 51.72 9.88 59.19 14.31"
/>
<path stroke="#a47576" vector-effect="non-scaling-stroke" d="
  M 42.52 18.47
  C 52.41 18.22 60.05 22.65 66.38 29.99
  A 1.01 1.01 0.0 0 0 67.61 30.22
  C 68.85 29.55 68.69 28.26 67.96 27.18
  Q 58.96 13.82 42.59 12.59
  A 1.00 0.99 2.1 0 0 41.52 13.58
  L 41.50 17.47
  A 0.99 0.99 0.0 0 0 42.52 18.47"
/>
<path stroke="#a47576" vector-effect="non-scaling-stroke" d="
  M 15.52 26.83
  C 2.40 47.70 15.76 74.91 41.05 75.78
  C 42.74 75.83 44.41 75.29 43.30 73.21
  A 1.00 1.00 0.0 0 0 42.49 72.68
  Q 25.00 71.38 15.18 57.58
  C 11.99 53.10 13.17 47.73 19.90 48.85
  A 1.01 0.96 -14.5 0 1 20.49 49.18
  Q 23.89 53.04 26.57 55.17
  Q 33.42 60.59 42.54 60.25
  A 1.00 1.00 0.0 0 0 43.50 59.25
  L 43.50 49.16
  A 1.00 1.00 0.0 0 0 42.30 48.18
  Q 31.13 50.53 25.80 41.74
  C 20.05 32.24 28.58 21.68 37.74 19.43
  A 1.00 0.99 83.4 0 0 38.50 18.46
  L 38.50 13.80
  A 1.00 1.00 0.0 0 0 37.32 12.82
  Q 22.61 15.54 15.52 26.83"
/>
<path stroke="#a47576" vector-effect="non-scaling-stroke" d="
  M 38.40 37.65
  L 38.53 23.79
  A 1.00 1.00 0.0 0 0 37.20 22.84
  Q 32.41 24.52 29.69 28.32
  C 26.13 33.30 26.20 40.49 31.96 43.79
  Q 36.99 46.68 40.95 45.18
  Q 43.15 44.36 45.40 43.51
  A 1.00 1.00 0.0 0 1 46.75 44.44
  L 46.75 58.15
  A 0.99 0.99 0.0 0 0 48.07 59.09
  Q 54.56 56.88 57.09 50.66
  C 60.57 42.08 52.87 35.40 44.56 36.88
  Q 42.70 37.21 39.83 38.56
  A 1.00 1.00 0.0 0 1 38.40 37.65"
/>
<path stroke="#a47576" vector-effect="non-scaling-stroke" d="
  M 43.71 64.16
  Q 43.80 64.01 43.70 63.79
  A 0.42 0.40 75.2 0 0 43.32 63.56
  Q 28.21 63.84 19.02 52.16
  A 1.01 1.01 0.0 0 0 18.21 51.78
  C 16.14 51.82 16.30 53.63 17.20 54.94
  Q 26.18 68.04 42.24 69.43
  A 1.00 1.00 0.0 0 0 43.33 68.49
  L 43.57 64.53
  Q 43.58 64.41 43.71 64.16"
/>
</g>
<path fill="#5a0000" d="
  M 0.00 0.00
  L 48.81 0.00
  L 49.84 1.35
  A 1.02 1.01 40.5 0 1 49.93 2.42
  Q 49.60 3.06 50.25 3.71
  Q 44.96 2.99 39.47 3.28
  A 1.01 1.00 88.8 0 0 38.52 4.28
  L 38.49 8.53
  A 1.00 0.99 -4.4 0 1 37.64 9.51
  C -4.20 15.88 -2.20 75.39 40.25 78.79
  Q 41.05 79.31 42.04 78.98
  Q 43.00 78.66 42.41 79.48
  Q 42.03 80.02 41.20 79.73
  Q 38.52 78.79 40.32 80.99
  C 43.77 85.22 48.36 83.16 52.94 84.00
  L 0.00 84.00
  L 0.00 0.00
  Z"
/>
<path fill="#740000" d="
  M 48.81 0.00
  L 89.00 0.00
  L 89.00 84.00
  L 52.94 84.00
  C 48.36 83.16 43.77 85.22 40.32 80.99
  Q 38.52 78.79 41.20 79.73
  Q 42.03 80.02 42.41 79.48
  Q 43.00 78.66 42.04 78.98
  Q 41.05 79.31 40.25 78.79
  L 45.52 78.67
  A 1.00 1.00 0.0 0 0 46.50 77.67
  L 46.50 73.57
  A 0.99 0.99 0.0 0 1 47.34 72.59
  C 86.53 66.21 88.52 12.70 50.25 3.71
  Q 49.60 3.06 49.93 2.42
  A 1.02 1.01 40.5 0 0 49.84 1.35
  L 48.81 0.00
  Z"
/>
<path fill="#edeaeb" d="
  M 50.25 3.71
  C 88.52 12.70 86.53 66.21 47.34 72.59
  A 0.99 0.99 0.0 0 0 46.50 73.57
  L 46.50 77.67
  A 1.00 1.00 0.0 0 1 45.52 78.67
  L 40.25 78.79
  C -2.20 75.39 -4.20 15.88 37.64 9.51
  A 1.00 0.99 -4.4 0 0 38.49 8.53
  L 38.52 4.28
  A 1.01 1.00 88.8 0 1 39.47 3.28
  Q 44.96 2.99 50.25 3.71
  Z
  M 59.19 14.31
  C 63.03 16.59 71.42 23.65 71.81 28.47
  C 72.05 31.40 69.11 34.13 66.32 33.44
  C 63.48 32.75 59.50 27.33 57.17 25.83
  Q 50.46 21.53 42.47 21.74
  A 1.00 1.00 0.0 0 0 41.50 22.74
  L 41.50 32.95
  A 1.00 0.99 83.2 0 0 42.73 33.92
  Q 52.68 31.54 58.43 38.84
  C 65.94 48.39 57.28 60.10 47.49 62.74
  A 0.99 0.98 82.9 0 0 46.75 63.70
  L 46.75 68.20
  A 1.00 1.00 0.0 0 0 47.90 69.19
  Q 60.89 67.18 68.37 57.10
  C 84.21 35.74 69.30 6.21 42.75 6.28
  A 1.00 0.99 -0.0 0 0 41.75 7.27
  L 41.74 8.38
  A 1.00 1.00 0.0 0 0 42.69 9.38
  Q 51.72 9.88 59.19 14.31
  Z
  M 42.52 18.47
  C 52.41 18.22 60.05 22.65 66.38 29.99
  A 1.01 1.01 0.0 0 0 67.61 30.22
  C 68.85 29.55 68.69 28.26 67.96 27.18
  Q 58.96 13.82 42.59 12.59
  A 1.00 0.99 2.1 0 0 41.52 13.58
  L 41.50 17.47
  A 0.99 0.99 0.0 0 0 42.52 18.47
  Z
  M 15.52 26.83
  C 2.40 47.70 15.76 74.91 41.05 75.78
  C 42.74 75.83 44.41 75.29 43.30 73.21
  A 1.00 1.00 0.0 0 0 42.49 72.68
  Q 25.00 71.38 15.18 57.58
  C 11.99 53.10 13.17 47.73 19.90 48.85
  A 1.01 0.96 -14.5 0 1 20.49 49.18
  Q 23.89 53.04 26.57 55.17
  Q 33.42 60.59 42.54 60.25
  A 1.00 1.00 0.0 0 0 43.50 59.25
  L 43.50 49.16
  A 1.00 1.00 0.0 0 0 42.30 48.18
  Q 31.13 50.53 25.80 41.74
  C 20.05 32.24 28.58 21.68 37.74 19.43
  A 1.00 0.99 83.4 0 0 38.50 18.46
  L 38.50 13.80
  A 1.00 1.00 0.0 0 0 37.32 12.82
  Q 22.61 15.54 15.52 26.83
  Z
  M 38.40 37.65
  L 38.53 23.79
  A 1.00 1.00 0.0 0 0 37.20 22.84
  Q 32.41 24.52 29.69 28.32
  C 26.13 33.30 26.20 40.49 31.96 43.79
  Q 36.99 46.68 40.95 45.18
  Q 43.15 44.36 45.40 43.51
  A 1.00 1.00 0.0 0 1 46.75 44.44
  L 46.75 58.15
  A 0.99 0.99 0.0 0 0 48.07 59.09
  Q 54.56 56.88 57.09 50.66
  C 60.57 42.08 52.87 35.40 44.56 36.88
  Q 42.70 37.21 39.83 38.56
  A 1.00 1.00 0.0 0 1 38.40 37.65
  Z
  M 43.71 64.16
  Q 43.80 64.01 43.70 63.79
  A 0.42 0.40 75.2 0 0 43.32 63.56
  Q 28.21 63.84 19.02 52.16
  A 1.01 1.01 0.0 0 0 18.21 51.78
  C 16.14 51.82 16.30 53.63 17.20 54.94
  Q 26.18 68.04 42.24 69.43
  A 1.00 1.00 0.0 0 0 43.33 68.49
  L 43.57 64.53
  Q 43.58 64.41 43.71 64.16
  Z"
/>
<path fill="#740000" d="
  M 59.19 14.31
  Q 51.72 9.88 42.69 9.38
  A 1.00 1.00 0.0 0 1 41.74 8.38
  L 41.75 7.27
  A 1.00 0.99 -0.0 0 1 42.75 6.28
  C 69.30 6.21 84.21 35.74 68.37 57.10
  Q 60.89 67.18 47.90 69.19
  A 1.00 1.00 0.0 0 1 46.75 68.20
  L 46.75 63.70
  A 0.99 0.98 82.9 0 1 47.49 62.74
  C 57.28 60.10 65.94 48.39 58.43 38.84
  Q 52.68 31.54 42.73 33.92
  A 1.00 0.99 83.2 0 1 41.50 32.95
  L 41.50 22.74
  A 1.00 1.00 0.0 0 1 42.47 21.74
  Q 50.46 21.53 57.17 25.83
  C 59.50 27.33 63.48 32.75 66.32 33.44
  C 69.11 34.13 72.05 31.40 71.81 28.47
  C 71.42 23.65 63.03 16.59 59.19 14.31
  Z"
/>
<path fill="#5a0000" d="
  M 66.38 29.99
  C 60.05 22.65 52.41 18.22 42.52 18.47
  A 0.99 0.99 0.0 0 1 41.50 17.47
  L 41.52 13.58
  A 1.00 0.99 2.1 0 1 42.59 12.59
  Q 58.96 13.82 67.96 27.18
  C 68.69 28.26 68.85 29.55 67.61 30.22
  A 1.01 1.01 0.0 0 1 66.38 29.99
  Z"
/>
<path fill="#5a0000" d="
  M 15.52 26.83
  Q 22.61 15.54 37.32 12.82
  A 1.00 1.00 0.0 0 1 38.50 13.80
  L 38.50 18.46
  A 1.00 0.99 83.4 0 1 37.74 19.43
  C 28.58 21.68 20.05 32.24 25.80 41.74
  Q 31.13 50.53 42.30 48.18
  A 1.00 1.00 0.0 0 1 43.50 49.16
  L 43.50 59.25
  A 1.00 1.00 0.0 0 1 42.54 60.25
  Q 33.42 60.59 26.57 55.17
  Q 23.89 53.04 20.49 49.18
  A 1.01 0.96 -14.5 0 0 19.90 48.85
  C 13.17 47.73 11.99 53.10 15.18 57.58
  Q 25.00 71.38 42.49 72.68
  A 1.00 1.00 0.0 0 1 43.30 73.21
  C 44.41 75.29 42.74 75.83 41.05 75.78
  C 15.76 74.91 2.40 47.70 15.52 26.83
  Z"
/>
<path fill="#5a0000" d="
  M 39.83 38.56
  Q 42.70 37.21 44.56 36.88
  C 52.87 35.40 60.57 42.08 57.09 50.66
  Q 54.56 56.88 48.07 59.09
  A 0.99 0.99 0.0 0 1 46.75 58.15
  L 46.75 44.44
  A 1.00 1.00 0.0 0 0 45.40 43.51
  Q 43.15 44.36 40.95 45.18
  Q 36.99 46.68 31.96 43.79
  C 26.20 40.49 26.13 33.30 29.69 28.32
  Q 32.41 24.52 37.20 22.84
  A 1.00 1.00 0.0 0 1 38.53 23.79
  L 38.40 37.65
  A 1.00 1.00 0.0 0 0 39.83 38.56
  Z"
/>
<path fill="#5a0000" d="
  M 43.57 64.53
  L 43.33 68.49
  A 1.00 1.00 0.0 0 1 42.24 69.43
  Q 26.18 68.04 17.20 54.94
  C 16.30 53.63 16.14 51.82 18.21 51.78
  A 1.01 1.01 0.0 0 1 19.02 52.16
  Q 28.21 63.84 43.32 63.56
  A 0.42 0.40 75.2 0 1 43.70 63.79
  Q 43.80 64.01 43.71 64.16
  Q 43.58 64.41 43.57 64.53
  Z"
/>
</svg>
