<?xml version="1.0" encoding="UTF-8" standalone="no"?>
<!DOCTYPE svg PUBLIC "-//W3C//DTD SVG 1.1//EN" "http://www.w3.org/Graphics/SVG/1.1/DTD/svg11.dtd">
<svg xmlns="http://www.w3.org/2000/svg" version="1.1" viewBox="0 0 97 80">
<g stroke-width="2.00" fill="none" stroke-linecap="butt">
<path stroke="#00a600" vector-effect="non-scaling-stroke" d="
  M 97.00 29.56
  Q 96.39 30.23 96.10 31.06
  A 0.99 0.99 0.0 0 1 95.21 31.73
  Q 90.47 32.00 85.79 31.25"
/>
<path stroke="#005b00" vector-effect="non-scaling-stroke" d="
  M 85.79 31.25
  Q 83.69 24.06 75.99 22.77
  Q 65.73 21.05 58.82 27.70
  A 1.01 1.00 48.4 0 1 57.35 27.61
  Q 51.89 20.90 42.17 22.22
  Q 35.58 23.11 31.75 27.36
  A 0.68 0.65 25.5 0 1 31.15 27.56
  C 30.62 27.45 30.85 23.35 30.46 22.25"
/>
<path stroke="#80db80" vector-effect="non-scaling-stroke" d="
  M 30.46 22.25
  L 30.66 8.47
  A 1.00 1.00 0.0 0 0 29.66 7.46
  L 13.36 7.47
  A 1.00 1.00 0.0 0 0 12.36 8.47
  L 12.39 22.47"
/>
<path stroke="#005b00" vector-effect="non-scaling-stroke" d="
  M 12.39 22.47
  L 12.21 31.50"
/>
<path stroke="#00ab00" vector-effect="non-scaling-stroke" d="
  M 12.21 31.50
  Q 12.07 34.84 10.69 33.37
  A 0.98 0.96 67.3 0 0 9.96 33.06
  L 1.93 33.13
  A 1.03 0.99 -18.9 0 1 1.14 32.76
  Q 0.01 31.35 0.00 29.44"
/>
<path stroke="#808080" vector-effect="non-scaling-stroke" d="
  M 30.46 22.25
  L 12.39 22.47"
/>
<path stroke="#004b00" vector-effect="non-scaling-stroke" d="
  M 85.79 31.25
  L 85.80 55.00
  A 1.00 1.00 0.0 0 1 84.80 56.00
  L 67.50 56.00
  A 1.00 1.00 0.0 0 1 66.50 55.00
  L 66.50 35.95
  A 1.01 1.00 25.5 0 0 66.27 35.31
  Q 62.54 30.86 58.89 35.55
  A 1.00 0.99 -26.3 0 0 58.68 36.16
  L 58.54 55.97"
/>
<path stroke="#808080" vector-effect="non-scaling-stroke" d="
  M 58.54 55.97
  L 39.90 55.79"
/>
<path stroke="#005000" vector-effect="non-scaling-stroke" d="
  M 39.90 55.79
  L 39.23 35.67
  A 0.99 0.94 -65.7 0 0 39.04 35.12
  Q 35.52 30.25 32.09 35.15
  A 0.99 0.99 0.0 0 0 31.91 35.75
  C 32.00 39.90 32.66 55.71 31.01 55.71"
/>
<path stroke="#808080" vector-effect="non-scaling-stroke" d="
  M 31.01 55.71
  L 12.54 55.75"
/>
<path stroke="#005000" vector-effect="non-scaling-stroke" d="
  M 12.54 55.75
  L 12.21 31.50"
/>
<path stroke="#80d080" vector-effect="non-scaling-stroke" d="
  M 12.54 55.75
  L 12.21 67.75"
/>
<path stroke="#009b00" vector-effect="non-scaling-stroke" d="
  M 12.21 67.75
  L 11.27 62.91
  A 0.65 0.64 -24.5 0 0 10.24 62.53
  L 9.81 62.87
  A 1.02 1.01 -61.6 0 1 9.11 63.08
  C 5.74 62.81 0.46 62.13 0.00 66.19"
/>
<path stroke="#80ca80" vector-effect="non-scaling-stroke" d="
  M 12.21 67.75
  L 12.29 68.84
  A 1.00 1.00 0.0 0 0 13.29 69.76
  L 30.03 69.72
  A 1.00 0.99 -1.4 0 0 31.03 68.68
  L 30.92 66.09
  Q 30.79 63.18 32.68 65.40
  Q 33.02 65.79 33.25 66.32
  A 1.04 1.00 5.8 0 0 33.63 66.77
  C 42.57 72.47 59.66 69.50 58.54 55.97"
/>
<path stroke="#80d080" vector-effect="non-scaling-stroke" d="
  M 39.90 55.79
  Q 35.79 63.04 31.01 55.71"
/>
</g>
<path fill="#00b600" d="
  M 0.00 0.00
  L 97.00 0.00
  L 97.00 29.56
  Q 96.39 30.23 96.10 31.06
  A 0.99 0.99 0.0 0 1 95.21 31.73
  Q 90.47 32.00 85.79 31.25
  Q 83.69 24.06 75.99 22.77
  Q 65.73 21.05 58.82 27.70
  A 1.01 1.00 48.4 0 1 57.35 27.61
  Q 51.89 20.90 42.17 22.22
  Q 35.58 23.11 31.75 27.36
  A 0.68 0.65 25.5 0 1 31.15 27.56
  C 30.62 27.45 30.85 23.35 30.46 22.25
  L 30.66 8.47
  A 1.00 1.00 0.0 0 0 29.66 7.46
  L 13.36 7.47
  A 1.00 1.00 0.0 0 0 12.36 8.47
  L 12.39 22.47
  L 12.21 31.50
  Q 12.07 34.84 10.69 33.37
  A 0.98 0.96 67.3 0 0 9.96 33.06
  L 1.93 33.13
  A 1.03 0.99 -18.9 0 1 1.14 32.76
  Q 0.01 31.35 0.00 29.44
  L 0.00 0.00
  Z"
/>
<path fill="#ffffff" d="
  M 30.46 22.25
  L 12.39 22.47
  L 12.36 8.47
  A 1.00 1.00 0.0 0 1 13.36 7.47
  L 29.66 7.46
  A 1.00 1.00 0.0 0 1 30.66 8.47
  L 30.46 22.25
  Z"
/>
<path fill="#000000" d="
  M 85.79 31.25
  L 85.80 55.00
  A 1.00 1.00 0.0 0 1 84.80 56.00
  L 67.50 56.00
  A 1.00 1.00 0.0 0 1 66.50 55.00
  L 66.50 35.95
  A 1.01 1.00 25.5 0 0 66.27 35.31
  Q 62.54 30.86 58.89 35.55
  A 1.00 0.99 -26.3 0 0 58.68 36.16
  L 58.54 55.97
  L 39.90 55.79
  L 39.23 35.67
  A 0.99 0.94 -65.7 0 0 39.04 35.12
  Q 35.52 30.25 32.09 35.15
  A 0.99 0.99 0.0 0 0 31.91 35.75
  C 32.00 39.90 32.66 55.71 31.01 55.71
  L 12.54 55.75
  L 12.21 31.50
  L 12.39 22.47
  L 30.46 22.25
  C 30.85 23.35 30.62 27.45 31.15 27.56
  A 0.68 0.65 25.5 0 0 31.75 27.36
  Q 35.58 23.11 42.17 22.22
  Q 51.89 20.90 57.35 27.61
  A 1.01 1.00 48.4 0 0 58.82 27.70
  Q 65.73 21.05 75.99 22.77
  Q 83.69 24.06 85.79 31.25
  Z"
/>
<path fill="#00a000" d="
  M 0.00 29.44
  Q 0.01 31.35 1.14 32.76
  A 1.03 0.99 -18.9 0 0 1.93 33.13
  L 9.96 33.06
  A 0.98 0.96 67.3 0 1 10.69 33.37
  Q 12.07 34.84 12.21 31.50
  L 12.54 55.75
  L 12.21 67.75
  L 11.27 62.91
  A 0.65 0.64 -24.5 0 0 10.24 62.53
  L 9.81 62.87
  A 1.02 1.01 -61.6 0 1 9.11 63.08
  C 5.74 62.81 0.46 62.13 0.00 66.19
  L 0.00 29.44
  Z"
/>
<path fill="#009500" d="
  M 97.00 29.56
  L 97.00 80.00
  L 0.00 80.00
  L 0.00 66.19
  C 0.46 62.13 5.74 62.81 9.11 63.08
  A 1.02 1.01 -61.6 0 0 9.81 62.87
  L 10.24 62.53
  A 0.65 0.64 -24.5 0 1 11.27 62.91
  L 12.21 67.75
  L 12.29 68.84
  A 1.00 1.00 0.0 0 0 13.29 69.76
  L 30.03 69.72
  A 1.00 0.99 -1.4 0 0 31.03 68.68
  L 30.92 66.09
  Q 30.79 63.18 32.68 65.40
  Q 33.02 65.79 33.25 66.32
  A 1.04 1.00 5.8 0 0 33.63 66.77
  C 42.57 72.47 59.66 69.50 58.54 55.97
  L 58.68 36.16
  A 1.00 0.99 -26.3 0 1 58.89 35.55
  Q 62.54 30.86 66.27 35.31
  A 1.01 1.00 25.5 0 1 66.50 35.95
  L 66.50 55.00
  A 1.00 1.00 0.0 0 0 67.50 56.00
  L 84.80 56.00
  A 1.00 1.00 0.0 0 0 85.80 55.00
  L 85.79 31.25
  Q 90.47 32.00 95.21 31.73
  A 0.99 0.99 0.0 0 0 96.10 31.06
  Q 96.39 30.23 97.00 29.56
  Z"
/>
<path fill="#00a000" d="
  M 39.90 55.79
  Q 35.79 63.04 31.01 55.71
  C 32.66 55.71 32.00 39.90 31.91 35.75
  A 0.99 0.99 0.0 0 1 32.09 35.15
  Q 35.52 30.25 39.04 35.12
  A 0.99 0.94 -65.7 0 1 39.23 35.67
  L 39.90 55.79
  Z"
/>
<path fill="#ffffff" d="
  M 12.54 55.75
  L 31.01 55.71
  Q 35.79 63.04 39.90 55.79
  L 58.54 55.97
  C 59.66 69.50 42.57 72.47 33.63 66.77
  A 1.04 1.00 5.8 0 1 33.25 66.32
  Q 33.02 65.79 32.68 65.40
  Q 30.79 63.18 30.92 66.09
  L 31.03 68.68
  A 1.00 0.99 -1.4 0 1 30.03 69.72
  L 13.29 69.76
  A 1.00 1.00 0.0 0 1 12.29 68.84
  L 12.21 67.75
  L 12.54 55.75
  Z"
/>
</svg>
