<?xml version="1.0" encoding="UTF-8" standalone="no"?>
<!DOCTYPE svg PUBLIC "-//W3C//DTD SVG 1.1//EN" "http://www.w3.org/Graphics/SVG/1.1/DTD/svg11.dtd">
<svg xmlns="http://www.w3.org/2000/svg" version="1.1" viewBox="0 0 147 127">
<g stroke-width="2.00" fill="none" stroke-linecap="butt">
<path stroke="#cbb47a" vector-effect="non-scaling-stroke" d="
  M 147.00 38.31
  Q 145.93 42.47 141.56 41.12
  A 0.97 0.97 0.0 0 0 140.84 41.17
  Q 138.97 42.07 136.94 41.75
  A 1.02 1.00 30.7 0 0 136.20 41.93
  Q 133.51 43.86 130.75 42.21"
/>
<path stroke="#7c6d4b" vector-effect="non-scaling-stroke" d="
  M 130.75 42.21
  L 136.11 39.47
  A 1.01 1.00 -26.4 0 0 136.56 38.15
  L 135.00 34.85
  A 1.00 1.00 0.0 0 0 133.66 34.38
  L 112.01 44.80
  A 1.00 1.00 0.0 0 1 110.62 44.18
  Q 104.44 23.24 86.33 13.35
  C 53.11 -4.80 12.52 18.31 11.63 56.19
  Q 11.23 72.89 21.26 87.23
  A 0.99 0.99 0.0 0 1 20.88 88.70
  L 9.96 93.97
  A 1.00 1.00 0.0 0 0 9.48 95.27
  L 10.75 98.21"
/>
<path stroke="#cbb47a" vector-effect="non-scaling-stroke" d="
  M 10.75 98.21
  Q 9.20 98.58 7.88 99.45
  A 1.08 0.99 26.7 0 1 7.32 99.61
  Q 5.70 99.61 5.76 101.36
  A 1.01 1.00 9.4 0 1 4.40 102.33
  C -0.19 100.59 1.31 103.70 0.89 105.93
  Q 0.40 108.56 0.00 111.19"
/>
<path stroke="#7f7152" vector-effect="non-scaling-stroke" d="
  M 130.75 42.21
  L 112.64 50.87
  A 1.00 0.99 76.4 0 0 112.07 51.82
  L 112.31 56.72
  A 1.01 1.00 75.7 0 1 111.75 57.67
  L 31.07 96.53
  A 1.01 1.01 0.0 0 1 29.96 96.37
  L 26.38 93.09
  A 1.01 1.01 0.0 0 0 25.27 92.93
  L 12.34 99.17
  A 1.00 1.00 0.0 0 1 11.02 98.73
  L 10.75 98.21"
/>
<path stroke="#7f7152" vector-effect="non-scaling-stroke" d="
  M 22.59 87.97
  A 0.47 0.47 0.0 0 0 22.44 88.70
  L 25.60 92.31
  A 0.47 0.47 0.0 0 0 26.16 92.42
  L 111.61 51.23
  A 0.47 0.47 0.0 0 0 111.87 50.73
  L 111.06 45.99
  A 0.47 0.47 0.0 0 0 110.39 45.65
  L 22.59 87.97"
/>
<path stroke="#7f7152" vector-effect="non-scaling-stroke" d="
  M 112.00 63.75
  L 37.09 99.83
  Q 35.62 100.53 37.08 101.26
  L 40.60 103.02
  Q 42.06 103.75 40.59 104.46
  L 19.76 114.47
  A 1.00 1.00 0.0 0 0 19.29 115.80
  L 20.86 119.12
  A 1.00 1.00 0.0 0 0 22.20 119.59
  L 49.33 106.48
  A 1.03 1.01 37.6 0 1 49.98 106.40
  C 73.57 111.59 97.54 100.74 107.50 78.50"
/>
<path stroke="#7f7152" vector-effect="non-scaling-stroke" d="
  M 107.50 78.50
  L 132.41 66.43
  A 0.99 0.99 0.0 0 0 132.87 65.10
  L 131.28 61.83
  A 0.99 0.99 0.0 0 0 129.95 61.37
  L 111.04 70.51
  A 0.95 0.95 0.0 0 0 110.55 71.03
  L 107.50 78.50"
/>
<path stroke="#7f7152" vector-effect="non-scaling-stroke" d="
  M 107.50 78.50
  L 49.94 106.11
  A 1.00 0.97 40.3 0 1 49.19 106.16
  L 43.91 104.39
  Q 42.04 103.77 43.81 102.92
  L 110.08 71.01
  A 0.99 0.98 83.3 0 0 110.62 70.32
  L 112.00 63.75"
/>
<path stroke="#7f7152" vector-effect="non-scaling-stroke" d="
  M 112.00 63.75
  L 133.94 53.14
  A 1.01 1.00 63.9 0 0 134.40 51.79
  L 132.77 48.56
  A 1.00 1.00 0.0 0 0 131.44 48.11
  L 113.00 56.99
  A 1.00 0.99 79.3 0 0 112.44 57.82
  L 112.00 63.75"
/>
<path stroke="#7f7152" vector-effect="non-scaling-stroke" d="
  M 35.30 100.74
  A 0.30 0.30 0.0 0 0 35.35 100.23
  L 30.66 96.87
  A 0.30 0.30 0.0 0 0 30.36 96.85
  L 14.14 104.62
  A 0.30 0.30 0.0 0 0 14.00 105.02
  L 16.30 109.57
  A 0.30 0.30 0.0 0 0 16.70 109.70
  L 35.30 100.74"
/>
</g>
<path fill="#c8b073" d="
  M 0.00 0.00
  L 147.00 0.00
  L 147.00 38.31
  Q 145.93 42.47 141.56 41.12
  A 0.97 0.97 0.0 0 0 140.84 41.17
  Q 138.97 42.07 136.94 41.75
  A 1.02 1.00 30.7 0 0 136.20 41.93
  Q 133.51 43.86 130.75 42.21
  L 136.11 39.47
  A 1.01 1.00 -26.4 0 0 136.56 38.15
  L 135.00 34.85
  A 1.00 1.00 0.0 0 0 133.66 34.38
  L 112.01 44.80
  A 1.00 1.00 0.0 0 1 110.62 44.18
  Q 104.44 23.24 86.33 13.35
  C 53.11 -4.80 12.52 18.31 11.63 56.19
  Q 11.23 72.89 21.26 87.23
  A 0.99 0.99 0.0 0 1 20.88 88.70
  L 9.96 93.97
  A 1.00 1.00 0.0 0 0 9.48 95.27
  L 10.75 98.21
  Q 9.20 98.58 7.88 99.45
  A 1.08 0.99 26.7 0 1 7.32 99.61
  Q 5.70 99.61 5.76 101.36
  A 1.01 1.00 9.4 0 1 4.40 102.33
  C -0.19 100.59 1.31 103.70 0.89 105.93
  Q 0.40 108.56 0.00 111.19
  L 0.00 0.00
  Z"
/>
<path fill="#302a23" d="
  M 130.75 42.21
  L 112.64 50.87
  A 1.00 0.99 76.4 0 0 112.07 51.82
  L 112.31 56.72
  A 1.01 1.00 75.7 0 1 111.75 57.67
  L 31.07 96.53
  A 1.01 1.01 0.0 0 1 29.96 96.37
  L 26.38 93.09
  A 1.01 1.01 0.0 0 0 25.27 92.93
  L 12.34 99.17
  A 1.00 1.00 0.0 0 1 11.02 98.73
  L 10.75 98.21
  L 9.48 95.27
  A 1.00 1.00 0.0 0 1 9.96 93.97
  L 20.88 88.70
  A 0.99 0.99 0.0 0 0 21.26 87.23
  Q 11.23 72.89 11.63 56.19
  C 12.52 18.31 53.11 -4.80 86.33 13.35
  Q 104.44 23.24 110.62 44.18
  A 1.00 1.00 0.0 0 0 112.01 44.80
  L 133.66 34.38
  A 1.00 1.00 0.0 0 1 135.00 34.85
  L 136.56 38.15
  A 1.01 1.00 -26.4 0 1 136.11 39.47
  L 130.75 42.21
  Z
  M 22.59 87.97
  A 0.47 0.47 0.0 0 0 22.44 88.70
  L 25.60 92.31
  A 0.47 0.47 0.0 0 0 26.16 92.42
  L 111.61 51.23
  A 0.47 0.47 0.0 0 0 111.87 50.73
  L 111.06 45.99
  A 0.47 0.47 0.0 0 0 110.39 45.65
  L 22.59 87.97
  Z"
/>
<path fill="#cdb780" d="
  M 147.00 38.31
  L 147.00 127.00
  L 0.00 127.00
  L 0.00 111.19
  Q 0.40 108.56 0.89 105.93
  C 1.31 103.70 -0.19 100.59 4.40 102.33
  A 1.01 1.00 9.4 0 0 5.76 101.36
  Q 5.70 99.61 7.32 99.61
  A 1.08 0.99 26.7 0 0 7.88 99.45
  Q 9.20 98.58 10.75 98.21
  L 11.02 98.73
  A 1.00 1.00 0.0 0 0 12.34 99.17
  L 25.27 92.93
  A 1.01 1.01 0.0 0 1 26.38 93.09
  L 29.96 96.37
  A 1.01 1.01 0.0 0 0 31.07 96.53
  L 111.75 57.67
  A 1.01 1.00 75.7 0 0 112.31 56.72
  L 112.07 51.82
  A 1.00 0.99 76.4 0 1 112.64 50.87
  L 130.75 42.21
  Q 133.51 43.86 136.20 41.93
  A 1.02 1.00 30.7 0 1 136.94 41.75
  Q 138.97 42.07 140.84 41.17
  A 0.97 0.97 0.0 0 1 141.56 41.12
  Q 145.93 42.47 147.00 38.31
  Z
  M 112.00 63.75
  L 37.09 99.83
  Q 35.62 100.53 37.08 101.26
  L 40.60 103.02
  Q 42.06 103.75 40.59 104.46
  L 19.76 114.47
  A 1.00 1.00 0.0 0 0 19.29 115.80
  L 20.86 119.12
  A 1.00 1.00 0.0 0 0 22.20 119.59
  L 49.33 106.48
  A 1.03 1.01 37.6 0 1 49.98 106.40
  C 73.57 111.59 97.54 100.74 107.50 78.50
  L 132.41 66.43
  A 0.99 0.99 0.0 0 0 132.87 65.10
  L 131.28 61.83
  A 0.99 0.99 0.0 0 0 129.95 61.37
  L 111.04 70.51
  A 0.95 0.95 0.0 0 0 110.55 71.03
  L 107.50 78.50
  L 49.94 106.11
  A 1.00 0.97 40.3 0 1 49.19 106.16
  L 43.91 104.39
  Q 42.04 103.77 43.81 102.92
  L 110.08 71.01
  A 0.99 0.98 83.3 0 0 110.62 70.32
  L 112.00 63.75
  L 133.94 53.14
  A 1.01 1.00 63.9 0 0 134.40 51.79
  L 132.77 48.56
  A 1.00 1.00 0.0 0 0 131.44 48.11
  L 113.00 56.99
  A 1.00 0.99 79.3 0 0 112.44 57.82
  L 112.00 63.75
  Z
  M 35.30 100.74
  A 0.30 0.30 0.0 0 0 35.35 100.23
  L 30.66 96.87
  A 0.30 0.30 0.0 0 0 30.36 96.85
  L 14.14 104.62
  A 0.30 0.30 0.0 0 0 14.00 105.02
  L 16.30 109.57
  A 0.30 0.30 0.0 0 0 16.70 109.70
  L 35.30 100.74
  Z"
/>
<path fill="#cdb780" d="
  M 22.59 87.97
  L 110.39 45.65
  A 0.47 0.47 0.0 0 1 111.06 45.99
  L 111.87 50.73
  A 0.47 0.47 0.0 0 1 111.61 51.23
  L 26.16 92.42
  A 0.47 0.47 0.0 0 1 25.60 92.31
  L 22.44 88.70
  A 0.47 0.47 0.0 0 1 22.59 87.97
  Z"
/>
<path fill="#302a23" d="
  M 112.00 63.75
  L 112.44 57.82
  A 1.00 0.99 79.3 0 1 113.00 56.99
  L 131.44 48.11
  A 1.00 1.00 0.0 0 1 132.77 48.56
  L 134.40 51.79
  A 1.01 1.00 63.9 0 1 133.94 53.14
  L 112.00 63.75
  Z"
/>
<path fill="#302a23" d="
  M 107.50 78.50
  L 110.55 71.03
  A 0.95 0.95 0.0 0 1 111.04 70.51
  L 129.95 61.37
  A 0.99 0.99 0.0 0 1 131.28 61.83
  L 132.87 65.10
  A 0.99 0.99 0.0 0 1 132.41 66.43
  L 107.50 78.50
  Z"
/>
<path fill="#302a23" d="
  M 112.00 63.75
  L 110.62 70.32
  A 0.99 0.98 83.3 0 1 110.08 71.01
  L 43.81 102.92
  Q 42.04 103.77 43.91 104.39
  L 49.19 106.16
  A 1.00 0.97 40.3 0 0 49.94 106.11
  L 107.50 78.50
  C 97.54 100.74 73.57 111.59 49.98 106.40
  A 1.03 1.01 37.6 0 0 49.33 106.48
  L 22.20 119.59
  A 1.00 1.00 0.0 0 1 20.86 119.12
  L 19.29 115.80
  A 1.00 1.00 0.0 0 1 19.76 114.47
  L 40.59 104.46
  Q 42.06 103.75 40.60 103.02
  L 37.08 101.26
  Q 35.62 100.53 37.09 99.83
  L 112.00 63.75
  Z"
/>
<path fill="#302a23" d="
  M 35.30 100.74
  L 16.70 109.70
  A 0.30 0.30 0.0 0 1 16.30 109.57
  L 14.00 105.02
  A 0.30 0.30 0.0 0 1 14.14 104.62
  L 30.36 96.85
  A 0.30 0.30 0.0 0 1 30.66 96.87
  L 35.35 100.23
  A 0.30 0.30 0.0 0 1 35.30 100.74
  Z"
/>
</svg>
