<?xml version="1.0" encoding="UTF-8" standalone="no"?>
<!DOCTYPE svg PUBLIC "-//W3C//DTD SVG 1.1//EN" "http://www.w3.org/Graphics/SVG/1.1/DTD/svg11.dtd">
<svg xmlns="http://www.w3.org/2000/svg" version="1.1" viewBox="0 0 94 77">
<g stroke-width="2.00" fill="none" stroke-linecap="butt">
<path stroke="#78a4a6" vector-effect="non-scaling-stroke" d="
  M 14.08 21.73
  C 10.67 38.39 7.51 55.11 4.28 71.81
  A 1.00 1.00 0.0 0 0 5.26 73.00
  L 54.16 73.00
  A 1.01 1.00 5.6 0 0 55.15 72.19
  L 57.93 58.06
  A 1.00 1.00 0.0 0 1 58.91 57.25
  L 73.03 57.25
  A 1.01 1.00 5.6 0 0 74.02 56.44
  L 83.78 6.19
  A 1.01 1.00 5.4 0 0 82.79 5.00
  L 33.90 5.01
  A 1.00 0.99 5.2 0 0 32.92 5.82
  L 30.12 20.20
  A 1.00 1.00 0.0 0 1 29.13 21.01
  L 15.07 20.93
  A 1.01 1.00 -83.7 0 0 14.08 21.73"
/>
<path stroke="#48664c" vector-effect="non-scaling-stroke" d="
  M 23.45 56.16
  A 0.49 0.49 0.0 0 0 23.93 56.74
  L 57.42 56.77
  A 0.49 0.49 0.0 0 0 57.90 56.37
  L 64.63 21.83
  A 0.49 0.49 0.0 0 0 64.15 21.25
  L 30.67 21.25
  A 0.49 0.49 0.0 0 0 30.19 21.65
  L 23.45 56.16"
/>
</g>
<path fill="#efefef" d="
  M 0.00 0.00
  L 94.00 0.00
  L 94.00 77.00
  L 0.00 77.00
  L 0.00 0.00
  Z
  M 14.08 21.73
  C 10.67 38.39 7.51 55.11 4.28 71.81
  A 1.00 1.00 0.0 0 0 5.26 73.00
  L 54.16 73.00
  A 1.01 1.00 5.6 0 0 55.15 72.19
  L 57.93 58.06
  A 1.00 1.00 0.0 0 1 58.91 57.25
  L 73.03 57.25
  A 1.01 1.00 5.6 0 0 74.02 56.44
  L 83.78 6.19
  A 1.01 1.00 5.4 0 0 82.79 5.00
  L 33.90 5.01
  A 1.00 0.99 5.2 0 0 32.92 5.82
  L 30.12 20.20
  A 1.00 1.00 0.0 0 1 29.13 21.01
  L 15.07 20.93
  A 1.01 1.00 -83.7 0 0 14.08 21.73
  Z"
/>
<path fill="#00595d" d="
  M 4.28 71.81
  C 7.51 55.11 10.67 38.39 14.08 21.73
  A 1.01 1.00 -83.7 0 1 15.07 20.93
  L 29.13 21.01
  A 1.00 1.00 0.0 0 0 30.12 20.20
  L 32.92 5.82
  A 1.00 0.99 5.2 0 1 33.90 5.01
  L 82.79 5.00
  A 1.01 1.00 5.4 0 1 83.78 6.19
  L 74.02 56.44
  A 1.01 1.00 5.6 0 1 73.03 57.25
  L 58.91 57.25
  A 1.00 1.00 0.0 0 0 57.93 58.06
  L 55.15 72.19
  A 1.01 1.00 5.6 0 1 54.16 73.00
  L 5.26 73.00
  A 1.00 1.00 0.0 0 1 4.28 71.81
  Z
  M 23.45 56.16
  A 0.49 0.49 0.0 0 0 23.93 56.74
  L 57.42 56.77
  A 0.49 0.49 0.0 0 0 57.90 56.37
  L 64.63 21.83
  A 0.49 0.49 0.0 0 0 64.15 21.25
  L 30.67 21.25
  A 0.49 0.49 0.0 0 0 30.19 21.65
  L 23.45 56.16
  Z"
/>
<path fill="#8f723a" d="
  M 23.45 56.16
  L 30.19 21.65
  A 0.49 0.49 0.0 0 1 30.67 21.25
  L 64.15 21.25
  A 0.49 0.49 0.0 0 1 64.63 21.83
  L 57.90 56.37
  A 0.49 0.49 0.0 0 1 57.42 56.77
  L 23.93 56.74
  A 0.49 0.49 0.0 0 1 23.45 56.16
  Z"
/>
</svg>
